# xmcd
#
# Track frame offsets: 
#        150
#        10025
#        21635
#        33606
#        44203
#        56393
#        65592
#        77468
#        87240
#        98577
#        108354
#        117680
#        130986
#        143087
#
# Disc length: 2031 seconds
#
# Revision: 1
# Processed by: cddbd v1.5.2PL0 Copyright (c) Steve Scherf et al.
# Submitted via: ExactAudioCopy v1.0b3
#
DISCID=c007ed0e
DTITLE=Don Rich - Don Rich Sings George Jones
DYEAR=2013
DGENRE=Country
TTITLE0=The Race Is On
TTITLE1=A Girl I Used To Know
TTITLE2=The Window Up Above
TTITLE3=White Lightning
TTITLE4=She Thinks I Still Care
TTITLE5=Love Bug
TTITLE6=You Comb Her Hair
TTITLE7=Your Heart Turned Left (And I Was On The Right)
TTITLE8=Walk Through This World With Me
TTITLE9=Buck Owens - Too Much Water
TTITLE10=Buck Owens - The Race Is On
TTITLE11=Buck Owens - Four-O-Thirty Three
TTITLE12=Buck Owens - Root Beer
TTITLE13=Buck Owens - Too Much Water
EXTD=
EXTT0=
EXTT1=
EXTT2=
EXTT3=
EXTT4=
EXTT5=
EXTT6=
EXTT7=
EXTT8=
EXTT9=
EXTT10=
EXTT11=
EXTT12=
EXTT13=
PLAYORDER=
